<mxfile host="app.diagrams.net" modified="2021-08-16T22:41:37.144Z" agent="5.0 (Macintosh; Intel Mac OS X 10_15_5) AppleWebKit/537.36 (KHTML, like Gecko) Chrome/92.0.4515.131 Safari/537.36" etag="atOdnXAGVtV-bJwoN7Kw" version="14.7.0" type="github" pages="3">
  <diagram id="jpIzxZSIdSary8d7w_Vh" name="Page-1">
    <mxGraphModel dx="1339" dy="738" grid="1" gridSize="10" guides="1" tooltips="1" connect="1" arrows="1" fold="1" page="1" pageScale="1" pageWidth="827" pageHeight="1169" math="0" shadow="0">
      <root>
        <mxCell id="0" />
        <mxCell id="1" parent="0" />
        <mxCell id="Ab--JRyYM9KAHZg3LL14-1" value="block_chain&lt;br&gt;无极2.0" style="rounded=0;whiteSpace=wrap;html=1;" vertex="1" parent="1">
          <mxGeometry x="370" y="20" width="120" height="60" as="geometry" />
        </mxCell>
        <mxCell id="Ab--JRyYM9KAHZg3LL14-2" value="&lt;font style=&quot;font-size: 8px&quot;&gt;es&lt;br&gt;block_chain&lt;/font&gt;" style="shape=cylinder3;whiteSpace=wrap;html=1;boundedLbl=1;backgroundOutline=1;size=15;" vertex="1" parent="1">
          <mxGeometry x="378" y="550" width="110" height="110" as="geometry" />
        </mxCell>
        <mxCell id="Ab--JRyYM9KAHZg3LL14-3" value="data_center&amp;nbsp; &amp;nbsp; API&lt;br&gt;&lt;div&gt;&lt;div class=&quot;document&quot;&gt;&lt;p class=&quot;paragraph text-align-type-left pap-line-1.5 pap-line-rule-auto pap-spacing-before-0pt pap-spacing-after-0pt&quot; style=&quot;text-align: left ; line-height: 1.5 ; margin-top: 0px ; margin-bottom: 0px&quot;&gt;&lt;span style=&quot;font-size: 10.5pt ; font-family: &amp;#34;monaco&amp;#34; , &amp;#34;courier new&amp;#34; , monospace , &amp;#34;helvetica neue&amp;#34; , &amp;#34;helvetica&amp;#34; , &amp;#34;pingfang sc&amp;#34; , &amp;#34;microsoft yahei&amp;#34; , &amp;#34;source han sans sc&amp;#34; , &amp;#34;noto sans cjk sc&amp;#34; , &amp;#34;wenquanyi micro hei&amp;#34; , sans-serif ; color: rgb(154 , 110 , 58) ; background: rgba(255 , 255 , 255 , 0.5) ; letter-spacing: 0pt ; vertical-align: baseline&quot;&gt;/&lt;/span&gt;&lt;span style=&quot;font-size: 10.5pt ; font-family: &amp;#34;monaco&amp;#34; , &amp;#34;courier new&amp;#34; , monospace , &amp;#34;helvetica neue&amp;#34; , &amp;#34;helvetica&amp;#34; , &amp;#34;pingfang sc&amp;#34; , &amp;#34;microsoft yahei&amp;#34; , &amp;#34;source han sans sc&amp;#34; , &amp;#34;noto sans cjk sc&amp;#34; , &amp;#34;wenquanyi micro hei&amp;#34; , sans-serif ; background: transparent ; letter-spacing: 0pt ; vertical-align: baseline&quot;&gt;data_center&lt;/span&gt;&lt;span style=&quot;font-size: 10.5pt ; font-family: &amp;#34;monaco&amp;#34; , &amp;#34;courier new&amp;#34; , monospace , &amp;#34;helvetica neue&amp;#34; , &amp;#34;helvetica&amp;#34; , &amp;#34;pingfang sc&amp;#34; , &amp;#34;microsoft yahei&amp;#34; , &amp;#34;source han sans sc&amp;#34; , &amp;#34;noto sans cjk sc&amp;#34; , &amp;#34;wenquanyi micro hei&amp;#34; , sans-serif ; color: rgb(154 , 110 , 58) ; background: rgba(255 , 255 , 255 , 0.5) ; letter-spacing: 0pt ; vertical-align: baseline&quot;&gt;/list&lt;/span&gt;&lt;span style=&quot;font-size: 10.5pt ; font-family: &amp;#34;monaco&amp;#34; , &amp;#34;courier new&amp;#34; , monospace , &amp;#34;helvetica neue&amp;#34; , &amp;#34;helvetica&amp;#34; , &amp;#34;pingfang sc&amp;#34; , &amp;#34;microsoft yahei&amp;#34; , &amp;#34;source han sans sc&amp;#34; , &amp;#34;noto sans cjk sc&amp;#34; , &amp;#34;wenquanyi micro hei&amp;#34; , sans-serif ; background: transparent ; letter-spacing: 0pt ; vertical-align: baseline&quot;&gt;&lt;/span&gt;&lt;/p&gt;&lt;p class=&quot;paragraph text-align-type-left pap-line-1.5 pap-line-rule-auto pap-spacing-before-0pt pap-spacing-after-0pt&quot; style=&quot;text-align: left ; line-height: 1.5 ; margin-top: 0px ; margin-bottom: 0px&quot;&gt;&lt;span style=&quot;font-size: 10.5pt ; font-family: &amp;#34;monaco&amp;#34; , &amp;#34;courier new&amp;#34; , monospace , &amp;#34;helvetica neue&amp;#34; , &amp;#34;helvetica&amp;#34; , &amp;#34;pingfang sc&amp;#34; , &amp;#34;microsoft yahei&amp;#34; , &amp;#34;source han sans sc&amp;#34; , &amp;#34;noto sans cjk sc&amp;#34; , &amp;#34;wenquanyi micro hei&amp;#34; , sans-serif ; background: transparent ; letter-spacing: 0pt ; vertical-align: baseline&quot;&gt;&lt;/span&gt;&lt;/p&gt;&lt;div&gt;&lt;div class=&quot;document&quot;&gt;&lt;p class=&quot;paragraph text-align-type-left pap-line-1.5 pap-line-rule-auto pap-spacing-before-0pt pap-spacing-after-0pt&quot; style=&quot;text-align: left ; line-height: 1.5 ; margin-top: 0px ; margin-bottom: 0px&quot;&gt;&lt;span style=&quot;font-size: 10.5pt ; font-family: &amp;#34;monaco&amp;#34; , &amp;#34;courier new&amp;#34; , monospace , &amp;#34;helvetica neue&amp;#34; , &amp;#34;helvetica&amp;#34; , &amp;#34;pingfang sc&amp;#34; , &amp;#34;microsoft yahei&amp;#34; , &amp;#34;source han sans sc&amp;#34; , &amp;#34;noto sans cjk sc&amp;#34; , &amp;#34;wenquanyi micro hei&amp;#34; , sans-serif ; color: rgb(154 , 110 , 58) ; background: rgba(255 , 255 , 255 , 0.5) ; letter-spacing: 0pt ; vertical-align: baseline&quot;&gt;/&lt;/span&gt;&lt;span style=&quot;font-size: 10.5pt ; font-family: &amp;#34;monaco&amp;#34; , &amp;#34;courier new&amp;#34; , monospace , &amp;#34;helvetica neue&amp;#34; , &amp;#34;helvetica&amp;#34; , &amp;#34;pingfang sc&amp;#34; , &amp;#34;microsoft yahei&amp;#34; , &amp;#34;source han sans sc&amp;#34; , &amp;#34;noto sans cjk sc&amp;#34; , &amp;#34;wenquanyi micro hei&amp;#34; , sans-serif ; background: transparent ; letter-spacing: 0pt ; vertical-align: baseline&quot;&gt;data_center&lt;/span&gt;&lt;span style=&quot;font-size: 10.5pt ; font-family: &amp;#34;monaco&amp;#34; , &amp;#34;courier new&amp;#34; , monospace , &amp;#34;helvetica neue&amp;#34; , &amp;#34;helvetica&amp;#34; , &amp;#34;pingfang sc&amp;#34; , &amp;#34;microsoft yahei&amp;#34; , &amp;#34;source han sans sc&amp;#34; , &amp;#34;noto sans cjk sc&amp;#34; , &amp;#34;wenquanyi micro hei&amp;#34; , sans-serif ; color: rgb(154 , 110 , 58) ; background: rgba(255 , 255 , 255 , 0.5) ; letter-spacing: 0pt ; vertical-align: baseline&quot;&gt;/add&lt;/span&gt;&lt;span style=&quot;font-size: 10.5pt ; font-family: &amp;#34;monaco&amp;#34; , &amp;#34;courier new&amp;#34; , monospace , &amp;#34;helvetica neue&amp;#34; , &amp;#34;helvetica&amp;#34; , &amp;#34;pingfang sc&amp;#34; , &amp;#34;microsoft yahei&amp;#34; , &amp;#34;source han sans sc&amp;#34; , &amp;#34;noto sans cjk sc&amp;#34; , &amp;#34;wenquanyi micro hei&amp;#34; , sans-serif ; background: transparent ; letter-spacing: 0pt ; vertical-align: baseline&quot;&gt;&lt;/span&gt;&lt;/p&gt;&lt;p class=&quot;paragraph text-align-type-left pap-line-1.5 pap-line-rule-auto pap-spacing-before-0pt pap-spacing-after-0pt&quot; style=&quot;text-align: left ; line-height: 1.5 ; margin-top: 0px ; margin-bottom: 0px&quot;&gt;&lt;span style=&quot;font-size: 10.5pt ; font-family: &amp;#34;monaco&amp;#34; , &amp;#34;courier new&amp;#34; , monospace , &amp;#34;helvetica neue&amp;#34; , &amp;#34;helvetica&amp;#34; , &amp;#34;pingfang sc&amp;#34; , &amp;#34;microsoft yahei&amp;#34; , &amp;#34;source han sans sc&amp;#34; , &amp;#34;noto sans cjk sc&amp;#34; , &amp;#34;wenquanyi micro hei&amp;#34; , sans-serif ; color: rgb(154 , 110 , 58) ; background: rgba(255 , 255 , 255 , 0.5) ; letter-spacing: 0pt ; vertical-align: baseline&quot;&gt;&lt;/span&gt;&lt;/p&gt;&lt;div&gt;&lt;div class=&quot;document&quot;&gt;&lt;p class=&quot;paragraph text-align-type-left pap-line-1.5 pap-line-rule-auto pap-spacing-before-0pt pap-spacing-after-0pt&quot; style=&quot;text-align: left ; line-height: 1.5 ; margin-top: 0px ; margin-bottom: 0px&quot;&gt;&lt;span style=&quot;font-size: 10.5pt ; font-family: &amp;#34;monaco&amp;#34; , &amp;#34;courier new&amp;#34; , monospace , &amp;#34;helvetica neue&amp;#34; , &amp;#34;helvetica&amp;#34; , &amp;#34;pingfang sc&amp;#34; , &amp;#34;microsoft yahei&amp;#34; , &amp;#34;source han sans sc&amp;#34; , &amp;#34;noto sans cjk sc&amp;#34; , &amp;#34;wenquanyi micro hei&amp;#34; , sans-serif ; color: rgb(154 , 110 , 58) ; background: rgba(255 , 255 , 255 , 0.5) ; letter-spacing: 0pt ; vertical-align: baseline&quot;&gt;/&lt;/span&gt;&lt;span style=&quot;font-size: 10.5pt ; font-family: &amp;#34;monaco&amp;#34; , &amp;#34;courier new&amp;#34; , monospace , &amp;#34;helvetica neue&amp;#34; , &amp;#34;helvetica&amp;#34; , &amp;#34;pingfang sc&amp;#34; , &amp;#34;microsoft yahei&amp;#34; , &amp;#34;source han sans sc&amp;#34; , &amp;#34;noto sans cjk sc&amp;#34; , &amp;#34;wenquanyi micro hei&amp;#34; , sans-serif ; background: transparent ; letter-spacing: 0pt ; vertical-align: baseline&quot;&gt;data_center&lt;/span&gt;&lt;span style=&quot;font-size: 10.5pt ; font-family: &amp;#34;monaco&amp;#34; , &amp;#34;courier new&amp;#34; , monospace , &amp;#34;helvetica neue&amp;#34; , &amp;#34;helvetica&amp;#34; , &amp;#34;pingfang sc&amp;#34; , &amp;#34;microsoft yahei&amp;#34; , &amp;#34;source han sans sc&amp;#34; , &amp;#34;noto sans cjk sc&amp;#34; , &amp;#34;wenquanyi micro hei&amp;#34; , sans-serif ; color: rgb(154 , 110 , 58) ; background: rgba(255 , 255 , 255 , 0.5) ; letter-spacing: 0pt ; vertical-align: baseline&quot;&gt;/update&lt;/span&gt;&lt;span style=&quot;font-size: 10.5pt ; font-family: &amp;#34;monaco&amp;#34; , &amp;#34;courier new&amp;#34; , monospace , &amp;#34;helvetica neue&amp;#34; , &amp;#34;helvetica&amp;#34; , &amp;#34;pingfang sc&amp;#34; , &amp;#34;microsoft yahei&amp;#34; , &amp;#34;source han sans sc&amp;#34; , &amp;#34;noto sans cjk sc&amp;#34; , &amp;#34;wenquanyi micro hei&amp;#34; , sans-serif ; background: transparent ; letter-spacing: 0pt ; vertical-align: baseline&quot;&gt;&lt;/span&gt;&lt;/p&gt;&lt;/div&gt;&lt;/div&gt;&lt;/div&gt;&lt;/div&gt;&lt;/div&gt;&lt;/div&gt;" style="rounded=0;whiteSpace=wrap;html=1;" vertex="1" parent="1">
          <mxGeometry x="345" y="410" width="160" height="90" as="geometry" />
        </mxCell>
        <mxCell id="Ab--JRyYM9KAHZg3LL14-4" value="CRUD&amp;nbsp; API" style="rounded=0;whiteSpace=wrap;html=1;" vertex="1" parent="1">
          <mxGeometry x="365" y="180" width="120" height="60" as="geometry" />
        </mxCell>
        <mxCell id="Ab--JRyYM9KAHZg3LL14-5" value="新增快讯页面" style="ellipse;whiteSpace=wrap;html=1;" vertex="1" parent="1">
          <mxGeometry x="174" y="110" width="120" height="80" as="geometry" />
        </mxCell>
        <mxCell id="Ab--JRyYM9KAHZg3LL14-6" value="展示快讯详情页面" style="ellipse;whiteSpace=wrap;html=1;" vertex="1" parent="1">
          <mxGeometry x="550" y="110" width="120" height="80" as="geometry" />
        </mxCell>
        <mxCell id="Ab--JRyYM9KAHZg3LL14-7" value="delete&lt;br&gt;&lt;pre style=&quot;text-align: left ; line-height: 1.5 ; margin-top: 0px ; margin-bottom: 0px&quot;&gt;&lt;font style=&quot;font-size: 8px&quot;&gt;&lt;span style=&quot;font-family: &amp;#34;monaco&amp;#34; , &amp;#34;courier new&amp;#34; , monospace , &amp;#34;helvetica neue&amp;#34; , &amp;#34;helvetica&amp;#34; , &amp;#34;pingfang sc&amp;#34; , &amp;#34;microsoft yahei&amp;#34; , &amp;#34;source han sans sc&amp;#34; , &amp;#34;noto sans cjk sc&amp;#34; , &amp;#34;wenquanyi micro hei&amp;#34; , sans-serif ; background: transparent ; letter-spacing: 0pt ; vertical-align: baseline&quot;&gt;block_chain&lt;/span&gt;&lt;span style=&quot;font-family: &amp;#34;monaco&amp;#34; , &amp;#34;courier new&amp;#34; , monospace , &amp;#34;helvetica neue&amp;#34; , &amp;#34;helvetica&amp;#34; , &amp;#34;pingfang sc&amp;#34; , &amp;#34;microsoft yahei&amp;#34; , &amp;#34;source han sans sc&amp;#34; , &amp;#34;noto sans cjk sc&amp;#34; , &amp;#34;wenquanyi micro hei&amp;#34; , sans-serif ; color: rgb(154 , 110 , 58) ; background: rgba(255 , 255 , 255 , 0.5) ; letter-spacing: 0pt ; vertical-align: baseline&quot;&gt;/delete&lt;/span&gt;&lt;/font&gt;&lt;/pre&gt;" style="ellipse;whiteSpace=wrap;html=1;" vertex="1" parent="1">
          <mxGeometry x="680" y="290" width="120" height="80" as="geometry" />
        </mxCell>
        <mxCell id="Ab--JRyYM9KAHZg3LL14-8" value="&lt;pre style=&quot;text-align: left ; line-height: 1.5 ; margin-top: 0px ; margin-bottom: 0px&quot;&gt;&lt;font style=&quot;font-size: 8px&quot;&gt;      add&lt;br&gt;&lt;span style=&quot;font-family: &amp;#34;monaco&amp;#34; , &amp;#34;courier new&amp;#34; , monospace , &amp;#34;helvetica neue&amp;#34; , &amp;#34;helvetica&amp;#34; , &amp;#34;pingfang sc&amp;#34; , &amp;#34;microsoft yahei&amp;#34; , &amp;#34;source han sans sc&amp;#34; , &amp;#34;noto sans cjk sc&amp;#34; , &amp;#34;wenquanyi micro hei&amp;#34; , sans-serif ; background: transparent ; letter-spacing: 0pt ; vertical-align: baseline&quot;&gt;block_chain&lt;/span&gt;&lt;span style=&quot;font-family: &amp;#34;monaco&amp;#34; , &amp;#34;courier new&amp;#34; , monospace , &amp;#34;helvetica neue&amp;#34; , &amp;#34;helvetica&amp;#34; , &amp;#34;pingfang sc&amp;#34; , &amp;#34;microsoft yahei&amp;#34; , &amp;#34;source han sans sc&amp;#34; , &amp;#34;noto sans cjk sc&amp;#34; , &amp;#34;wenquanyi micro hei&amp;#34; , sans-serif ; color: rgb(154 , 110 , 58) ; background: rgba(255 , 255 , 255 , 0.5) ; letter-spacing: 0pt ; vertical-align: baseline&quot;&gt;/add&lt;/span&gt;&lt;span style=&quot;font-family: &amp;#34;monaco&amp;#34; , &amp;#34;courier new&amp;#34; , monospace , &amp;#34;helvetica neue&amp;#34; , &amp;#34;helvetica&amp;#34; , &amp;#34;pingfang sc&amp;#34; , &amp;#34;microsoft yahei&amp;#34; , &amp;#34;source han sans sc&amp;#34; , &amp;#34;noto sans cjk sc&amp;#34; , &amp;#34;wenquanyi micro hei&amp;#34; , sans-serif ; background: transparent ; letter-spacing: 0pt ; vertical-align: baseline&quot;&gt;&amp;nbsp;&lt;/span&gt;&lt;/font&gt;&lt;/pre&gt;" style="ellipse;whiteSpace=wrap;html=1;" vertex="1" parent="1">
          <mxGeometry x="174" y="290" width="120" height="80" as="geometry" />
        </mxCell>
        <mxCell id="Ab--JRyYM9KAHZg3LL14-9" value="modify&lt;br&gt;&lt;pre style=&quot;text-align: left ; line-height: 1.5 ; margin-top: 0px ; margin-bottom: 0px&quot;&gt;&lt;font style=&quot;font-size: 8px&quot;&gt;&lt;span style=&quot;font-family: &amp;#34;monaco&amp;#34; , &amp;#34;courier new&amp;#34; , monospace , &amp;#34;helvetica neue&amp;#34; , &amp;#34;helvetica&amp;#34; , &amp;#34;pingfang sc&amp;#34; , &amp;#34;microsoft yahei&amp;#34; , &amp;#34;source han sans sc&amp;#34; , &amp;#34;noto sans cjk sc&amp;#34; , &amp;#34;wenquanyi micro hei&amp;#34; , sans-serif ; background: transparent ; letter-spacing: 0pt ; vertical-align: baseline&quot;&gt;block_chain&lt;/span&gt;&lt;span style=&quot;font-family: &amp;#34;monaco&amp;#34; , &amp;#34;courier new&amp;#34; , monospace , &amp;#34;helvetica neue&amp;#34; , &amp;#34;helvetica&amp;#34; , &amp;#34;pingfang sc&amp;#34; , &amp;#34;microsoft yahei&amp;#34; , &amp;#34;source han sans sc&amp;#34; , &amp;#34;noto sans cjk sc&amp;#34; , &amp;#34;wenquanyi micro hei&amp;#34; , sans-serif ; color: rgb(154 , 110 , 58) ; background: rgba(255 , 255 , 255 , 0.5) ; letter-spacing: 0pt ; vertical-align: baseline&quot;&gt;/update&lt;/span&gt;&lt;/font&gt;&lt;/pre&gt;" style="ellipse;whiteSpace=wrap;html=1;" vertex="1" parent="1">
          <mxGeometry x="530" y="300" width="120" height="80" as="geometry" />
        </mxCell>
        <mxCell id="Ab--JRyYM9KAHZg3LL14-14" value="" style="endArrow=classic;html=1;" edge="1" parent="1">
          <mxGeometry relative="1" as="geometry">
            <mxPoint x="330" y="920" as="sourcePoint" />
            <mxPoint x="430" y="920" as="targetPoint" />
          </mxGeometry>
        </mxCell>
        <mxCell id="Ab--JRyYM9KAHZg3LL14-15" value="row1" style="edgeLabel;resizable=0;html=1;align=center;verticalAlign=middle;" connectable="0" vertex="1" parent="Ab--JRyYM9KAHZg3LL14-14">
          <mxGeometry relative="1" as="geometry" />
        </mxCell>
        <mxCell id="Ab--JRyYM9KAHZg3LL14-16" value="" style="endArrow=classic;html=1;" edge="1" parent="1">
          <mxGeometry relative="1" as="geometry">
            <mxPoint x="330" y="939.9999999999998" as="sourcePoint" />
            <mxPoint x="430" y="939.9999999999998" as="targetPoint" />
          </mxGeometry>
        </mxCell>
        <mxCell id="Ab--JRyYM9KAHZg3LL14-17" value="row2" style="edgeLabel;resizable=0;html=1;align=center;verticalAlign=middle;" connectable="0" vertex="1" parent="Ab--JRyYM9KAHZg3LL14-16">
          <mxGeometry relative="1" as="geometry" />
        </mxCell>
        <mxCell id="Ab--JRyYM9KAHZg3LL14-18" value="" style="endArrow=classic;html=1;" edge="1" parent="1">
          <mxGeometry relative="1" as="geometry">
            <mxPoint x="330" y="959.9999999999998" as="sourcePoint" />
            <mxPoint x="430" y="959.9999999999998" as="targetPoint" />
          </mxGeometry>
        </mxCell>
        <mxCell id="Ab--JRyYM9KAHZg3LL14-19" value="row3" style="edgeLabel;resizable=0;html=1;align=center;verticalAlign=middle;" connectable="0" vertex="1" parent="Ab--JRyYM9KAHZg3LL14-18">
          <mxGeometry relative="1" as="geometry" />
        </mxCell>
        <mxCell id="Ab--JRyYM9KAHZg3LL14-20" value="修改" style="rounded=0;whiteSpace=wrap;html=1;" vertex="1" parent="1">
          <mxGeometry x="440" y="910" width="30" height="20" as="geometry" />
        </mxCell>
        <mxCell id="Ab--JRyYM9KAHZg3LL14-21" value="删除" style="rounded=0;whiteSpace=wrap;html=1;" vertex="1" parent="1">
          <mxGeometry x="480" y="910" width="30" height="20" as="geometry" />
        </mxCell>
        <mxCell id="Ab--JRyYM9KAHZg3LL14-23" value="修改" style="rounded=0;whiteSpace=wrap;html=1;" vertex="1" parent="1">
          <mxGeometry x="440" y="950" width="30" height="20" as="geometry" />
        </mxCell>
        <mxCell id="Ab--JRyYM9KAHZg3LL14-24" value="删除" style="rounded=0;whiteSpace=wrap;html=1;" vertex="1" parent="1">
          <mxGeometry x="480" y="930" width="30" height="20" as="geometry" />
        </mxCell>
        <mxCell id="Ab--JRyYM9KAHZg3LL14-25" value="删除" style="rounded=0;whiteSpace=wrap;html=1;" vertex="1" parent="1">
          <mxGeometry x="480" y="950" width="30" height="20" as="geometry" />
        </mxCell>
        <mxCell id="Ab--JRyYM9KAHZg3LL14-26" value="修改" style="rounded=0;whiteSpace=wrap;html=1;" vertex="1" parent="1">
          <mxGeometry x="440" y="930" width="30" height="20" as="geometry" />
        </mxCell>
        <mxCell id="Ab--JRyYM9KAHZg3LL14-27" value="searchByID" style="rounded=0;whiteSpace=wrap;html=1;" vertex="1" parent="1">
          <mxGeometry x="330" y="850" width="70" height="20" as="geometry" />
        </mxCell>
        <mxCell id="Ab--JRyYM9KAHZg3LL14-28" value="searchByStatus" style="rounded=0;whiteSpace=wrap;html=1;" vertex="1" parent="1">
          <mxGeometry x="414" y="850" width="100" height="20" as="geometry" />
        </mxCell>
        <mxCell id="Ab--JRyYM9KAHZg3LL14-29" value="创建" style="rounded=0;whiteSpace=wrap;html=1;" vertex="1" parent="1">
          <mxGeometry x="460" y="880" width="40" height="20" as="geometry" />
        </mxCell>
        <mxCell id="Ab--JRyYM9KAHZg3LL14-30" value="" style="rounded=0;whiteSpace=wrap;html=1;" vertex="1" parent="1">
          <mxGeometry x="550" y="850" width="160" height="120" as="geometry" />
        </mxCell>
        <mxCell id="Ab--JRyYM9KAHZg3LL14-31" value="content" style="rounded=0;whiteSpace=wrap;html=1;" vertex="1" parent="1">
          <mxGeometry x="560" y="870" width="80" height="30" as="geometry" />
        </mxCell>
        <mxCell id="Ab--JRyYM9KAHZg3LL14-32" value="高亮" style="rounded=0;whiteSpace=wrap;html=1;" vertex="1" parent="1">
          <mxGeometry x="560" y="910" width="40" height="20" as="geometry" />
        </mxCell>
        <mxCell id="Ab--JRyYM9KAHZg3LL14-33" value="置顶" style="rounded=0;whiteSpace=wrap;html=1;" vertex="1" parent="1">
          <mxGeometry x="600" y="910" width="40" height="20" as="geometry" />
        </mxCell>
        <mxCell id="Ab--JRyYM9KAHZg3LL14-34" value="预览" style="rounded=0;whiteSpace=wrap;html=1;" vertex="1" parent="1">
          <mxGeometry x="640" y="910" width="40" height="20" as="geometry" />
        </mxCell>
        <mxCell id="Ab--JRyYM9KAHZg3LL14-35" value="发布" style="rounded=0;whiteSpace=wrap;html=1;" vertex="1" parent="1">
          <mxGeometry x="670" y="950" width="40" height="20" as="geometry" />
        </mxCell>
        <mxCell id="Ab--JRyYM9KAHZg3LL14-36" value="重置" style="rounded=0;whiteSpace=wrap;html=1;" vertex="1" parent="1">
          <mxGeometry x="630" y="950" width="40" height="20" as="geometry" />
        </mxCell>
        <mxCell id="Ab--JRyYM9KAHZg3LL14-37" value="list&lt;br&gt;&lt;pre style=&quot;text-align: left ; line-height: 1.5 ; margin-top: 0px ; margin-bottom: 0px&quot;&gt;&lt;font style=&quot;font-size: 8px&quot;&gt;&lt;span style=&quot;font-family: &amp;#34;monaco&amp;#34; , &amp;#34;courier new&amp;#34; , monospace , &amp;#34;helvetica neue&amp;#34; , &amp;#34;helvetica&amp;#34; , &amp;#34;pingfang sc&amp;#34; , &amp;#34;microsoft yahei&amp;#34; , &amp;#34;source han sans sc&amp;#34; , &amp;#34;noto sans cjk sc&amp;#34; , &amp;#34;wenquanyi micro hei&amp;#34; , sans-serif ; background: transparent ; letter-spacing: 0pt ; vertical-align: baseline&quot;&gt;block_chain&lt;/span&gt;&lt;span style=&quot;font-family: &amp;#34;monaco&amp;#34; , &amp;#34;courier new&amp;#34; , monospace , &amp;#34;helvetica neue&amp;#34; , &amp;#34;helvetica&amp;#34; , &amp;#34;pingfang sc&amp;#34; , &amp;#34;microsoft yahei&amp;#34; , &amp;#34;source han sans sc&amp;#34; , &amp;#34;noto sans cjk sc&amp;#34; , &amp;#34;wenquanyi micro hei&amp;#34; , sans-serif ; color: rgb(154 , 110 , 58) ; background: rgba(255 , 255 , 255 , 0.5) ; letter-spacing: 0pt ; vertical-align: baseline&quot;&gt;/list&lt;/span&gt;&lt;/font&gt;&lt;/pre&gt;" style="ellipse;whiteSpace=wrap;html=1;" vertex="1" parent="1">
          <mxGeometry x="380" y="290" width="120" height="80" as="geometry" />
        </mxCell>
        <mxCell id="Ab--JRyYM9KAHZg3LL14-38" value="" style="endArrow=classic;html=1;exitX=0.446;exitY=1.033;exitDx=0;exitDy=0;exitPerimeter=0;" edge="1" parent="1" source="Ab--JRyYM9KAHZg3LL14-1" target="Ab--JRyYM9KAHZg3LL14-5">
          <mxGeometry width="50" height="50" relative="1" as="geometry">
            <mxPoint x="400" y="230" as="sourcePoint" />
            <mxPoint x="450" y="180" as="targetPoint" />
          </mxGeometry>
        </mxCell>
        <mxCell id="Ab--JRyYM9KAHZg3LL14-39" value="" style="endArrow=classic;html=1;exitX=0.456;exitY=1.014;exitDx=0;exitDy=0;exitPerimeter=0;" edge="1" parent="1" source="Ab--JRyYM9KAHZg3LL14-1" target="Ab--JRyYM9KAHZg3LL14-6">
          <mxGeometry width="50" height="50" relative="1" as="geometry">
            <mxPoint x="433.52" y="91.98000000000002" as="sourcePoint" />
            <mxPoint x="296.81032466831493" y="141.01381076879318" as="targetPoint" />
          </mxGeometry>
        </mxCell>
        <mxCell id="Ab--JRyYM9KAHZg3LL14-40" value="" style="endArrow=classic;html=1;entryX=0.5;entryY=0;entryDx=0;entryDy=0;" edge="1" parent="1" source="Ab--JRyYM9KAHZg3LL14-6" target="Ab--JRyYM9KAHZg3LL14-4">
          <mxGeometry width="50" height="50" relative="1" as="geometry">
            <mxPoint x="443.52" y="101.98000000000002" as="sourcePoint" />
            <mxPoint x="390" y="190" as="targetPoint" />
          </mxGeometry>
        </mxCell>
        <mxCell id="Ab--JRyYM9KAHZg3LL14-41" value="" style="endArrow=classic;html=1;exitX=0.994;exitY=0.614;exitDx=0;exitDy=0;exitPerimeter=0;entryX=0.5;entryY=0;entryDx=0;entryDy=0;" edge="1" parent="1" source="Ab--JRyYM9KAHZg3LL14-5" target="Ab--JRyYM9KAHZg3LL14-4">
          <mxGeometry width="50" height="50" relative="1" as="geometry">
            <mxPoint x="453.52" y="111.98000000000002" as="sourcePoint" />
            <mxPoint x="316.81032466831493" y="161.01381076879318" as="targetPoint" />
          </mxGeometry>
        </mxCell>
        <mxCell id="Ab--JRyYM9KAHZg3LL14-42" value="" style="endArrow=classic;html=1;exitX=0.468;exitY=1.007;exitDx=0;exitDy=0;exitPerimeter=0;" edge="1" parent="1" source="Ab--JRyYM9KAHZg3LL14-37">
          <mxGeometry width="50" height="50" relative="1" as="geometry">
            <mxPoint x="446.71" y="370" as="sourcePoint" />
            <mxPoint x="435" y="407" as="targetPoint" />
            <Array as="points" />
          </mxGeometry>
        </mxCell>
        <mxCell id="Ab--JRyYM9KAHZg3LL14-43" value="" style="endArrow=classic;html=1;" edge="1" parent="1">
          <mxGeometry width="50" height="50" relative="1" as="geometry">
            <mxPoint x="440" y="240" as="sourcePoint" />
            <mxPoint x="580" y="299" as="targetPoint" />
          </mxGeometry>
        </mxCell>
        <mxCell id="Ab--JRyYM9KAHZg3LL14-44" value="" style="endArrow=classic;html=1;exitX=0.446;exitY=1.033;exitDx=0;exitDy=0;exitPerimeter=0;" edge="1" parent="1" target="Ab--JRyYM9KAHZg3LL14-37">
          <mxGeometry width="50" height="50" relative="1" as="geometry">
            <mxPoint x="440" y="240" as="sourcePoint" />
            <mxPoint x="303.29032466831495" y="289.03381076879316" as="targetPoint" />
          </mxGeometry>
        </mxCell>
        <mxCell id="Ab--JRyYM9KAHZg3LL14-45" value="" style="endArrow=classic;html=1;exitX=0.446;exitY=1.033;exitDx=0;exitDy=0;exitPerimeter=0;entryX=0.746;entryY=0.079;entryDx=0;entryDy=0;entryPerimeter=0;" edge="1" parent="1" target="Ab--JRyYM9KAHZg3LL14-8">
          <mxGeometry width="50" height="50" relative="1" as="geometry">
            <mxPoint x="440" y="240.97000000000003" as="sourcePoint" />
            <mxPoint x="303.29032466831495" y="290.0038107687932" as="targetPoint" />
          </mxGeometry>
        </mxCell>
        <mxCell id="Ab--JRyYM9KAHZg3LL14-46" value="" style="endArrow=classic;html=1;exitX=0.64;exitY=1.005;exitDx=0;exitDy=0;exitPerimeter=0;entryX=0.268;entryY=0.029;entryDx=0;entryDy=0;entryPerimeter=0;" edge="1" parent="1" source="Ab--JRyYM9KAHZg3LL14-4" target="Ab--JRyYM9KAHZg3LL14-7">
          <mxGeometry width="50" height="50" relative="1" as="geometry">
            <mxPoint x="503.52" y="161.98000000000002" as="sourcePoint" />
            <mxPoint x="366.81032466831493" y="211.01381076879318" as="targetPoint" />
          </mxGeometry>
        </mxCell>
        <mxCell id="Ab--JRyYM9KAHZg3LL14-47" value="" style="endArrow=classic;html=1;exitX=0.53;exitY=1.01;exitDx=0;exitDy=0;exitPerimeter=0;" edge="1" parent="1">
          <mxGeometry width="50" height="50" relative="1" as="geometry">
            <mxPoint x="437.79999999999995" y="500.9" as="sourcePoint" />
            <mxPoint x="438" y="550" as="targetPoint" />
          </mxGeometry>
        </mxCell>
      </root>
    </mxGraphModel>
  </diagram>
  <diagram id="rquHmr62GCb2CN2H5C4U" name="Page-2">
    <mxGraphModel dx="1538" dy="740" grid="1" gridSize="10" guides="1" tooltips="1" connect="1" arrows="1" fold="1" page="1" pageScale="1" pageWidth="827" pageHeight="1169" math="0" shadow="0">
      <root>
        <mxCell id="IkzOAPIZLinOKCkv0hCc-0" />
        <mxCell id="IkzOAPIZLinOKCkv0hCc-1" parent="IkzOAPIZLinOKCkv0hCc-0" />
        <mxCell id="IkzOAPIZLinOKCkv0hCc-2" value="Actor" style="shape=umlActor;verticalLabelPosition=bottom;verticalAlign=top;html=1;outlineConnect=0;" vertex="1" parent="IkzOAPIZLinOKCkv0hCc-1">
          <mxGeometry x="70" y="20" width="90" height="120" as="geometry" />
        </mxCell>
        <mxCell id="IkzOAPIZLinOKCkv0hCc-3" value="&lt;font style=&quot;font-size: 18px&quot;&gt;&lt;br&gt;data_center&lt;br&gt;add/update/put&lt;/font&gt;" style="shape=document;whiteSpace=wrap;html=1;boundedLbl=1;" vertex="1" parent="IkzOAPIZLinOKCkv0hCc-1">
          <mxGeometry x="170" y="40" width="140" height="100" as="geometry" />
        </mxCell>
        <mxCell id="7nnTBE3TrmWXE37nWBMk-7" style="edgeStyle=orthogonalEdgeStyle;rounded=0;orthogonalLoop=1;jettySize=auto;html=1;" edge="1" parent="IkzOAPIZLinOKCkv0hCc-1" source="IkzOAPIZLinOKCkv0hCc-7" target="IkzOAPIZLinOKCkv0hCc-27">
          <mxGeometry relative="1" as="geometry" />
        </mxCell>
        <mxCell id="IkzOAPIZLinOKCkv0hCc-7" value="&lt;pre style=&quot;background-color: #ffffff ; color: #080808 ; font-family: &amp;#34;jetbrains mono&amp;#34; , monospace ; font-size: 12.0pt&quot;&gt;&lt;span style=&quot;color: #805900&quot;&gt;sendToAtta&lt;/span&gt;&lt;/pre&gt;" style="rounded=0;whiteSpace=wrap;html=1;" vertex="1" parent="IkzOAPIZLinOKCkv0hCc-1">
          <mxGeometry x="420" y="750" width="120" height="60" as="geometry" />
        </mxCell>
        <mxCell id="IkzOAPIZLinOKCkv0hCc-8" value="&lt;font style=&quot;font-size: 18px&quot;&gt;hot_data_bus&lt;/font&gt;" style="rounded=0;whiteSpace=wrap;html=1;" vertex="1" parent="IkzOAPIZLinOKCkv0hCc-1">
          <mxGeometry x="100" y="260" width="120" height="60" as="geometry" />
        </mxCell>
        <mxCell id="IkzOAPIZLinOKCkv0hCc-11" value="&lt;font style=&quot;font-size: 14px&quot;&gt;kafka消费者&lt;br&gt;kafka consumer&lt;/font&gt;" style="ellipse;whiteSpace=wrap;html=1;direction=west;" vertex="1" parent="IkzOAPIZLinOKCkv0hCc-1">
          <mxGeometry x="30" y="410" width="120" height="80" as="geometry" />
        </mxCell>
        <mxCell id="IkzOAPIZLinOKCkv0hCc-12" value="&lt;font style=&quot;font-size: 14px&quot;&gt;定时器&lt;br&gt;delay push&lt;/font&gt;" style="ellipse;whiteSpace=wrap;html=1;" vertex="1" parent="IkzOAPIZLinOKCkv0hCc-1">
          <mxGeometry x="210" y="410" width="120" height="80" as="geometry" />
        </mxCell>
        <mxCell id="IkzOAPIZLinOKCkv0hCc-13" value="" style="endArrow=classic;html=1;exitX=0.5;exitY=1;exitDx=0;exitDy=0;entryX=0.35;entryY=0.988;entryDx=0;entryDy=0;entryPerimeter=0;" edge="1" parent="IkzOAPIZLinOKCkv0hCc-1" source="IkzOAPIZLinOKCkv0hCc-8" target="IkzOAPIZLinOKCkv0hCc-11">
          <mxGeometry width="50" height="50" relative="1" as="geometry">
            <mxPoint x="420" y="370" as="sourcePoint" />
            <mxPoint x="470" y="320" as="targetPoint" />
          </mxGeometry>
        </mxCell>
        <mxCell id="IkzOAPIZLinOKCkv0hCc-17" value="&lt;font style=&quot;font-size: 14px&quot;&gt;goroutine&lt;/font&gt;" style="edgeLabel;html=1;align=center;verticalAlign=middle;resizable=0;points=[];" vertex="1" connectable="0" parent="IkzOAPIZLinOKCkv0hCc-13">
          <mxGeometry x="0.1625" relative="1" as="geometry">
            <mxPoint as="offset" />
          </mxGeometry>
        </mxCell>
        <mxCell id="IkzOAPIZLinOKCkv0hCc-16" value="" style="endArrow=classic;html=1;exitX=0.5;exitY=1;exitDx=0;exitDy=0;entryX=0.208;entryY=0.063;entryDx=0;entryDy=0;entryPerimeter=0;" edge="1" parent="IkzOAPIZLinOKCkv0hCc-1" source="IkzOAPIZLinOKCkv0hCc-8" target="IkzOAPIZLinOKCkv0hCc-12">
          <mxGeometry width="50" height="50" relative="1" as="geometry">
            <mxPoint x="170" y="330" as="sourcePoint" />
            <mxPoint x="118" y="420.96000000000004" as="targetPoint" />
          </mxGeometry>
        </mxCell>
        <mxCell id="IkzOAPIZLinOKCkv0hCc-18" value="&lt;font style=&quot;font-size: 14px&quot;&gt;goroutine&lt;/font&gt;" style="edgeLabel;html=1;align=center;verticalAlign=middle;resizable=0;points=[];" vertex="1" connectable="0" parent="IkzOAPIZLinOKCkv0hCc-16">
          <mxGeometry x="-0.0014" y="1" relative="1" as="geometry">
            <mxPoint y="4" as="offset" />
          </mxGeometry>
        </mxCell>
        <mxCell id="IkzOAPIZLinOKCkv0hCc-20" value="&lt;font style=&quot;font-size: 18px&quot;&gt;redis&lt;br&gt;&lt;br&gt;&lt;div&gt;&lt;div class=&quot;document&quot;&gt;&lt;p class=&quot;paragraph text-align-type-left pap-line-1.3 pap-line-rule-auto pap-spacing-before-3pt pap-spacing-after-3pt&quot; style=&quot;text-align: left ; line-height: 1.3 ; margin-top: 4px ; margin-bottom: 4px&quot;&gt;&lt;span style=&quot;font-family: &amp;#34;helvetica neue&amp;#34; , &amp;#34;helvetica&amp;#34; , &amp;#34;pingfang sc&amp;#34; , &amp;#34;microsoft yahei&amp;#34; , &amp;#34;source han sans sc&amp;#34; , &amp;#34;noto sans cjk sc&amp;#34; , &amp;#34;wenquanyi micro hei&amp;#34; , sans-serif ; color: rgb(51 , 51 , 51) ; background: transparent ; letter-spacing: 0pt ; vertical-align: baseline&quot;&gt;&lt;font&gt;I&lt;/font&gt;&lt;font&gt;ndexSortedSet&lt;/font&gt;&lt;/span&gt;&lt;/p&gt;&lt;/div&gt;&lt;/div&gt;&lt;span style=&quot;background-color: transparent ; color: rgb(51 , 51 , 51) ; font-family: &amp;#34;helvetica neue&amp;#34; , &amp;#34;helvetica&amp;#34; , &amp;#34;pingfang sc&amp;#34; , &amp;#34;microsoft yahei&amp;#34; , &amp;#34;source han sans sc&amp;#34; , &amp;#34;noto sans cjk sc&amp;#34; , &amp;#34;wenquanyi micro hei&amp;#34; , sans-serif ; letter-spacing: 0pt ; text-align: left&quot;&gt;IndexSet&lt;/span&gt;&lt;/font&gt;" style="shape=cylinder3;whiteSpace=wrap;html=1;boundedLbl=1;backgroundOutline=1;size=15;" vertex="1" parent="IkzOAPIZLinOKCkv0hCc-1">
          <mxGeometry x="75" y="590" width="170" height="160" as="geometry" />
        </mxCell>
        <mxCell id="IkzOAPIZLinOKCkv0hCc-21" value="" style="endArrow=classic;html=1;exitX=0.5;exitY=0;exitDx=0;exitDy=0;" edge="1" parent="IkzOAPIZLinOKCkv0hCc-1" source="IkzOAPIZLinOKCkv0hCc-11">
          <mxGeometry width="50" height="50" relative="1" as="geometry">
            <mxPoint x="420" y="490" as="sourcePoint" />
            <mxPoint x="150" y="610" as="targetPoint" />
          </mxGeometry>
        </mxCell>
        <mxCell id="7nnTBE3TrmWXE37nWBMk-3" value="&lt;font style=&quot;font-size: 24px&quot;&gt;ADD&lt;/font&gt;" style="edgeLabel;html=1;align=center;verticalAlign=middle;resizable=0;points=[];" vertex="1" connectable="0" parent="IkzOAPIZLinOKCkv0hCc-21">
          <mxGeometry x="-0.3533" y="-3" relative="1" as="geometry">
            <mxPoint as="offset" />
          </mxGeometry>
        </mxCell>
        <mxCell id="IkzOAPIZLinOKCkv0hCc-22" value="" style="endArrow=classic;html=1;entryX=0.308;entryY=0.975;entryDx=0;entryDy=0;entryPerimeter=0;" edge="1" parent="IkzOAPIZLinOKCkv0hCc-1" target="IkzOAPIZLinOKCkv0hCc-12">
          <mxGeometry width="50" height="50" relative="1" as="geometry">
            <mxPoint x="180" y="610" as="sourcePoint" />
            <mxPoint x="470" y="440" as="targetPoint" />
          </mxGeometry>
        </mxCell>
        <mxCell id="7nnTBE3TrmWXE37nWBMk-4" value="&lt;font style=&quot;font-size: 24px&quot;&gt;POP&lt;/font&gt;" style="edgeLabel;html=1;align=center;verticalAlign=middle;resizable=0;points=[];" vertex="1" connectable="0" parent="IkzOAPIZLinOKCkv0hCc-22">
          <mxGeometry x="0.28" relative="1" as="geometry">
            <mxPoint as="offset" />
          </mxGeometry>
        </mxCell>
        <mxCell id="IkzOAPIZLinOKCkv0hCc-23" value="&lt;font style=&quot;font-size: 18px&quot;&gt;index1&amp;nbsp; &amp;nbsp;goroutine&lt;/font&gt;" style="shape=document;whiteSpace=wrap;html=1;boundedLbl=1;" vertex="1" parent="IkzOAPIZLinOKCkv0hCc-1">
          <mxGeometry x="441" y="340" width="120" height="80" as="geometry" />
        </mxCell>
        <mxCell id="IkzOAPIZLinOKCkv0hCc-24" value="&lt;font style=&quot;font-size: 18px&quot;&gt;index2&amp;nbsp; &amp;nbsp;goroutine&lt;/font&gt;" style="shape=document;whiteSpace=wrap;html=1;boundedLbl=1;" vertex="1" parent="IkzOAPIZLinOKCkv0hCc-1">
          <mxGeometry x="440" y="400" width="120" height="80" as="geometry" />
        </mxCell>
        <mxCell id="IkzOAPIZLinOKCkv0hCc-25" value="&lt;font style=&quot;font-size: 18px&quot;&gt;index3&amp;nbsp; &amp;nbsp;goroutine&lt;/font&gt;" style="shape=document;whiteSpace=wrap;html=1;boundedLbl=1;" vertex="1" parent="IkzOAPIZLinOKCkv0hCc-1">
          <mxGeometry x="440" y="460" width="120" height="85" as="geometry" />
        </mxCell>
        <mxCell id="IkzOAPIZLinOKCkv0hCc-26" value="&lt;font style=&quot;font-size: 18px&quot;&gt;index4&amp;nbsp; &amp;nbsp;goroutine&lt;/font&gt;" style="shape=document;whiteSpace=wrap;html=1;boundedLbl=1;" vertex="1" parent="IkzOAPIZLinOKCkv0hCc-1">
          <mxGeometry x="440" y="520" width="120" height="80" as="geometry" />
        </mxCell>
        <mxCell id="IkzOAPIZLinOKCkv0hCc-27" value="&lt;pre style=&quot;background-color: #ffffff ; color: #080808 ; font-family: &amp;#34;jetbrains mono&amp;#34; , monospace ; font-size: 12.0pt&quot;&gt;&lt;span style=&quot;color: #805900&quot;&gt;syncContentDataBus&lt;/span&gt;&lt;/pre&gt;" style="rounded=0;whiteSpace=wrap;html=1;" vertex="1" parent="IkzOAPIZLinOKCkv0hCc-1">
          <mxGeometry x="570" y="750" width="120" height="60" as="geometry" />
        </mxCell>
        <mxCell id="IkzOAPIZLinOKCkv0hCc-28" value="&lt;pre style=&quot;background-color: #ffffff ; color: #080808 ; font-family: &amp;#34;jetbrains mono&amp;#34; , monospace ; font-size: 12.0pt&quot;&gt;&lt;span style=&quot;color: #805900&quot;&gt;syncDymaticDataBus&lt;/span&gt;&lt;/pre&gt;" style="rounded=0;whiteSpace=wrap;html=1;" vertex="1" parent="IkzOAPIZLinOKCkv0hCc-1">
          <mxGeometry x="750" y="750" width="120" height="60" as="geometry" />
        </mxCell>
        <mxCell id="IkzOAPIZLinOKCkv0hCc-29" value="&lt;pre style=&quot;background-color: #ffffff ; color: #080808 ; font-family: &amp;#34;jetbrains mono&amp;#34; , monospace ; font-size: 12.0pt&quot;&gt;&lt;span style=&quot;color: #805900&quot;&gt;syncRelationDataBus&lt;/span&gt;&lt;/pre&gt;" style="rounded=0;whiteSpace=wrap;html=1;" vertex="1" parent="IkzOAPIZLinOKCkv0hCc-1">
          <mxGeometry x="940" y="750" width="120" height="60" as="geometry" />
        </mxCell>
        <mxCell id="IkzOAPIZLinOKCkv0hCc-30" value="&lt;pre style=&quot;background-color: #ffffff ; color: #080808 ; font-family: &amp;#34;jetbrains mono&amp;#34; , monospace ; font-size: 12.0pt&quot;&gt;&lt;span style=&quot;color: #805900&quot;&gt;sendToBusinessKafka&lt;/span&gt;&lt;/pre&gt;" style="rounded=0;whiteSpace=wrap;html=1;" vertex="1" parent="IkzOAPIZLinOKCkv0hCc-1">
          <mxGeometry x="270" y="750" width="120" height="60" as="geometry" />
        </mxCell>
        <mxCell id="IkzOAPIZLinOKCkv0hCc-32" value="&lt;pre style=&quot;background-color: #ffffff ; color: #080808 ; font-family: &amp;#34;jetbrains mono&amp;#34; , monospace ; font-size: 12.0pt&quot;&gt;&lt;pre style=&quot;font-family: &amp;#34;jetbrains mono&amp;#34; , monospace ; font-size: 12pt&quot;&gt;&lt;span style=&quot;color: #36666b&quot;&gt;ZPOPMIN&lt;/span&gt;&lt;/pre&gt;&lt;/pre&gt;" style="rounded=0;whiteSpace=wrap;html=1;" vertex="1" parent="IkzOAPIZLinOKCkv0hCc-1">
          <mxGeometry x="670" y="390" width="360" height="120" as="geometry" />
        </mxCell>
        <mxCell id="IkzOAPIZLinOKCkv0hCc-33" value="&lt;font style=&quot;font-size: 18px&quot;&gt;t2&lt;/font&gt;" style="rounded=0;whiteSpace=wrap;html=1;" vertex="1" parent="IkzOAPIZLinOKCkv0hCc-1">
          <mxGeometry x="690" y="390" width="40" height="40" as="geometry" />
        </mxCell>
        <mxCell id="IkzOAPIZLinOKCkv0hCc-34" value="&lt;font style=&quot;font-size: 18px&quot;&gt;t3&lt;/font&gt;" style="rounded=0;whiteSpace=wrap;html=1;" vertex="1" parent="IkzOAPIZLinOKCkv0hCc-1">
          <mxGeometry x="730" y="390" width="40" height="40" as="geometry" />
        </mxCell>
        <mxCell id="IkzOAPIZLinOKCkv0hCc-36" value="&lt;font style=&quot;font-size: 18px&quot;&gt;t4&lt;/font&gt;" style="rounded=0;whiteSpace=wrap;html=1;" vertex="1" parent="IkzOAPIZLinOKCkv0hCc-1">
          <mxGeometry x="770" y="390" width="40" height="40" as="geometry" />
        </mxCell>
        <mxCell id="IkzOAPIZLinOKCkv0hCc-37" value="&lt;font style=&quot;font-size: 18px&quot;&gt;t5&lt;/font&gt;" style="rounded=0;whiteSpace=wrap;html=1;" vertex="1" parent="IkzOAPIZLinOKCkv0hCc-1">
          <mxGeometry x="810" y="390" width="40" height="40" as="geometry" />
        </mxCell>
        <mxCell id="IkzOAPIZLinOKCkv0hCc-38" value="&lt;font style=&quot;font-size: 18px&quot;&gt;t6&lt;/font&gt;" style="rounded=0;whiteSpace=wrap;html=1;" vertex="1" parent="IkzOAPIZLinOKCkv0hCc-1">
          <mxGeometry x="849" y="390" width="40" height="40" as="geometry" />
        </mxCell>
        <mxCell id="IkzOAPIZLinOKCkv0hCc-39" value="&lt;font style=&quot;font-size: 18px&quot;&gt;t7&lt;/font&gt;" style="rounded=0;whiteSpace=wrap;html=1;" vertex="1" parent="IkzOAPIZLinOKCkv0hCc-1">
          <mxGeometry x="889" y="390" width="40" height="40" as="geometry" />
        </mxCell>
        <mxCell id="IkzOAPIZLinOKCkv0hCc-40" value="" style="shape=flexArrow;endArrow=classic;html=1;" edge="1" parent="IkzOAPIZLinOKCkv0hCc-1">
          <mxGeometry width="50" height="50" relative="1" as="geometry">
            <mxPoint x="1010" y="300" as="sourcePoint" />
            <mxPoint x="1010" y="390" as="targetPoint" />
          </mxGeometry>
        </mxCell>
        <mxCell id="IkzOAPIZLinOKCkv0hCc-41" value="" style="shape=flexArrow;endArrow=classic;html=1;entryX=0;entryY=0;entryDx=0;entryDy=0;" edge="1" parent="IkzOAPIZLinOKCkv0hCc-1" target="IkzOAPIZLinOKCkv0hCc-33">
          <mxGeometry width="50" height="50" relative="1" as="geometry">
            <mxPoint x="690" y="310" as="sourcePoint" />
            <mxPoint x="720" y="260" as="targetPoint" />
          </mxGeometry>
        </mxCell>
        <mxCell id="IkzOAPIZLinOKCkv0hCc-42" value="" style="endArrow=classic;startArrow=classic;html=1;" edge="1" parent="IkzOAPIZLinOKCkv0hCc-1">
          <mxGeometry width="50" height="50" relative="1" as="geometry">
            <mxPoint x="700" y="360" as="sourcePoint" />
            <mxPoint x="1000" y="360" as="targetPoint" />
          </mxGeometry>
        </mxCell>
        <mxCell id="IkzOAPIZLinOKCkv0hCc-44" value="&lt;font style=&quot;font-size: 24px&quot;&gt;delay time&lt;/font&gt;" style="edgeLabel;html=1;align=center;verticalAlign=middle;resizable=0;points=[];" vertex="1" connectable="0" parent="IkzOAPIZLinOKCkv0hCc-42">
          <mxGeometry x="-0.24" y="-1" relative="1" as="geometry">
            <mxPoint as="offset" />
          </mxGeometry>
        </mxCell>
        <mxCell id="7nnTBE3TrmWXE37nWBMk-0" value="&lt;font style=&quot;font-size: 24px&quot;&gt;kafka 消息流&lt;/font&gt;" style="endArrow=classic;html=1;entryX=0.583;entryY=-0.083;entryDx=0;entryDy=0;entryPerimeter=0;" edge="1" parent="IkzOAPIZLinOKCkv0hCc-1" target="IkzOAPIZLinOKCkv0hCc-8">
          <mxGeometry width="50" height="50" relative="1" as="geometry">
            <mxPoint x="170" y="150" as="sourcePoint" />
            <mxPoint x="470" y="340" as="targetPoint" />
          </mxGeometry>
        </mxCell>
        <mxCell id="7nnTBE3TrmWXE37nWBMk-2" value="" style="endArrow=classic;html=1;exitX=1;exitY=0.5;exitDx=0;exitDy=0;entryX=0;entryY=0.65;entryDx=0;entryDy=0;entryPerimeter=0;" edge="1" parent="IkzOAPIZLinOKCkv0hCc-1" source="IkzOAPIZLinOKCkv0hCc-12" target="IkzOAPIZLinOKCkv0hCc-24">
          <mxGeometry width="50" height="50" relative="1" as="geometry">
            <mxPoint x="410" y="410" as="sourcePoint" />
            <mxPoint x="460" y="360" as="targetPoint" />
          </mxGeometry>
        </mxCell>
        <mxCell id="7nnTBE3TrmWXE37nWBMk-6" value="&lt;span style=&quot;color: rgb(51 , 51 , 51) ; font-family: &amp;#34;helvetica neue&amp;#34; , &amp;#34;helvetica&amp;#34; , &amp;#34;pingfang sc&amp;#34; , &amp;#34;microsoft yahei&amp;#34; , &amp;#34;source han sans sc&amp;#34; , &amp;#34;noto sans cjk sc&amp;#34; , &amp;#34;wenquanyi micro hei&amp;#34; , sans-serif ; font-size: 18px ; text-align: left ; background-color: rgb(248 , 249 , 250)&quot;&gt;IndexSet&lt;/span&gt;" style="edgeLabel;html=1;align=center;verticalAlign=middle;resizable=0;points=[];" vertex="1" connectable="0" parent="7nnTBE3TrmWXE37nWBMk-2">
          <mxGeometry x="-0.1087" y="-1" relative="1" as="geometry">
            <mxPoint as="offset" />
          </mxGeometry>
        </mxCell>
        <mxCell id="7nnTBE3TrmWXE37nWBMk-8" value="" style="endArrow=classic;html=1;exitX=1;exitY=0.013;exitDx=0;exitDy=0;exitPerimeter=0;entryX=-0.011;entryY=0.058;entryDx=0;entryDy=0;entryPerimeter=0;" edge="1" parent="IkzOAPIZLinOKCkv0hCc-1" source="IkzOAPIZLinOKCkv0hCc-24" target="IkzOAPIZLinOKCkv0hCc-32">
          <mxGeometry width="50" height="50" relative="1" as="geometry">
            <mxPoint x="410" y="540" as="sourcePoint" />
            <mxPoint x="650" y="489" as="targetPoint" />
          </mxGeometry>
        </mxCell>
        <mxCell id="7nnTBE3TrmWXE37nWBMk-10" value="&lt;pre style=&quot;color: rgb(8 , 8 , 8) ; font-size: 12pt ; font-family: &amp;#34;jetbrains mono&amp;#34; , monospace&quot;&gt;&lt;br&gt;&lt;/pre&gt;" style="edgeLabel;html=1;align=center;verticalAlign=middle;resizable=0;points=[];" vertex="1" connectable="0" parent="7nnTBE3TrmWXE37nWBMk-8">
          <mxGeometry x="-0.4328" y="2" relative="1" as="geometry">
            <mxPoint as="offset" />
          </mxGeometry>
        </mxCell>
        <mxCell id="7nnTBE3TrmWXE37nWBMk-11" value="&lt;pre style=&quot;color: rgb(8 , 8 , 8) ; font-size: 12pt ; font-family: &amp;#34;jetbrains mono&amp;#34; , monospace&quot;&gt;&lt;br&gt;&lt;/pre&gt;" style="edgeLabel;html=1;align=center;verticalAlign=middle;resizable=0;points=[];" vertex="1" connectable="0" parent="7nnTBE3TrmWXE37nWBMk-8">
          <mxGeometry x="0.1691" relative="1" as="geometry">
            <mxPoint as="offset" />
          </mxGeometry>
        </mxCell>
        <mxCell id="7nnTBE3TrmWXE37nWBMk-12" value="&lt;pre style=&quot;color: rgb(8 , 8 , 8) ; font-size: 12pt ; font-family: &amp;#34;jetbrains mono&amp;#34; , monospace&quot;&gt;&lt;span style=&quot;color: rgb(54 , 102 , 107)&quot;&gt;ZPOPMIN&lt;/span&gt;&lt;/pre&gt;" style="edgeLabel;html=1;align=center;verticalAlign=middle;resizable=0;points=[];" vertex="1" connectable="0" parent="7nnTBE3TrmWXE37nWBMk-8">
          <mxGeometry x="0.0938" relative="1" as="geometry">
            <mxPoint as="offset" />
          </mxGeometry>
        </mxCell>
        <mxCell id="7nnTBE3TrmWXE37nWBMk-13" value="" style="endArrow=classic;html=1;exitX=0.5;exitY=1;exitDx=0;exitDy=0;" edge="1" parent="IkzOAPIZLinOKCkv0hCc-1" source="IkzOAPIZLinOKCkv0hCc-33">
          <mxGeometry width="50" height="50" relative="1" as="geometry">
            <mxPoint x="410" y="680" as="sourcePoint" />
            <mxPoint x="710" y="670" as="targetPoint" />
          </mxGeometry>
        </mxCell>
        <mxCell id="7nnTBE3TrmWXE37nWBMk-14" value="&lt;font style=&quot;font-size: 24px&quot;&gt;stage&lt;/font&gt;" style="edgeLabel;html=1;align=center;verticalAlign=middle;resizable=0;points=[];" vertex="1" connectable="0" parent="7nnTBE3TrmWXE37nWBMk-13">
          <mxGeometry x="0.36" relative="1" as="geometry">
            <mxPoint as="offset" />
          </mxGeometry>
        </mxCell>
        <mxCell id="7nnTBE3TrmWXE37nWBMk-15" value="" style="endArrow=classic;html=1;entryX=0.633;entryY=-0.033;entryDx=0;entryDy=0;entryPerimeter=0;" edge="1" parent="IkzOAPIZLinOKCkv0hCc-1" target="IkzOAPIZLinOKCkv0hCc-30">
          <mxGeometry width="50" height="50" relative="1" as="geometry">
            <mxPoint x="345" y="670" as="sourcePoint" />
            <mxPoint x="460" y="680" as="targetPoint" />
            <Array as="points" />
          </mxGeometry>
        </mxCell>
        <mxCell id="7nnTBE3TrmWXE37nWBMk-16" value="" style="endArrow=classic;html=1;entryX=0.633;entryY=-0.033;entryDx=0;entryDy=0;entryPerimeter=0;" edge="1" parent="IkzOAPIZLinOKCkv0hCc-1">
          <mxGeometry width="50" height="50" relative="1" as="geometry">
            <mxPoint x="999.5" y="671.98" as="sourcePoint" />
            <mxPoint x="1000.46" y="750" as="targetPoint" />
            <Array as="points" />
          </mxGeometry>
        </mxCell>
        <mxCell id="7nnTBE3TrmWXE37nWBMk-17" value="" style="endArrow=classic;html=1;entryX=0.633;entryY=-0.033;entryDx=0;entryDy=0;entryPerimeter=0;" edge="1" parent="IkzOAPIZLinOKCkv0hCc-1">
          <mxGeometry width="50" height="50" relative="1" as="geometry">
            <mxPoint x="809" y="671.98" as="sourcePoint" />
            <mxPoint x="809.96" y="750" as="targetPoint" />
            <Array as="points" />
          </mxGeometry>
        </mxCell>
        <mxCell id="7nnTBE3TrmWXE37nWBMk-18" value="" style="endArrow=classic;html=1;entryX=0.633;entryY=-0.033;entryDx=0;entryDy=0;entryPerimeter=0;" edge="1" parent="IkzOAPIZLinOKCkv0hCc-1">
          <mxGeometry width="50" height="50" relative="1" as="geometry">
            <mxPoint x="629.5" y="671.98" as="sourcePoint" />
            <mxPoint x="630.46" y="750" as="targetPoint" />
            <Array as="points" />
          </mxGeometry>
        </mxCell>
        <mxCell id="7nnTBE3TrmWXE37nWBMk-19" value="" style="endArrow=classic;html=1;entryX=0.633;entryY=-0.033;entryDx=0;entryDy=0;entryPerimeter=0;" edge="1" parent="IkzOAPIZLinOKCkv0hCc-1">
          <mxGeometry width="50" height="50" relative="1" as="geometry">
            <mxPoint x="479.5" y="671.98" as="sourcePoint" />
            <mxPoint x="480.46000000000004" y="750" as="targetPoint" />
            <Array as="points" />
          </mxGeometry>
        </mxCell>
        <mxCell id="7nnTBE3TrmWXE37nWBMk-20" value="" style="endArrow=none;html=1;" edge="1" parent="IkzOAPIZLinOKCkv0hCc-1">
          <mxGeometry width="50" height="50" relative="1" as="geometry">
            <mxPoint x="350" y="670" as="sourcePoint" />
            <mxPoint x="1000" y="670" as="targetPoint" />
          </mxGeometry>
        </mxCell>
        <mxCell id="7nnTBE3TrmWXE37nWBMk-21" value="&lt;font style=&quot;font-size: 18px&quot;&gt;写业务kafka&lt;/font&gt;" style="text;html=1;align=center;verticalAlign=middle;resizable=0;points=[];autosize=1;strokeColor=none;" vertex="1" parent="IkzOAPIZLinOKCkv0hCc-1">
          <mxGeometry x="270" y="835" width="110" height="20" as="geometry" />
        </mxCell>
        <mxCell id="7nnTBE3TrmWXE37nWBMk-22" value="&lt;div style=&quot;text-align: center&quot;&gt;&lt;span style=&quot;font-size: 18px&quot;&gt;&lt;font face=&quot;helvetica&quot;&gt;上报atta&lt;/font&gt;&lt;/span&gt;&lt;/div&gt;" style="text;whiteSpace=wrap;html=1;" vertex="1" parent="IkzOAPIZLinOKCkv0hCc-1">
          <mxGeometry x="430" y="830" width="120" height="30" as="geometry" />
        </mxCell>
        <mxCell id="7nnTBE3TrmWXE37nWBMk-23" value="&lt;span style=&quot;color: rgb(0 , 0 , 0) ; font-family: &amp;#34;helvetica&amp;#34; ; font-size: 18px ; font-style: normal ; font-weight: 400 ; letter-spacing: normal ; text-align: center ; text-indent: 0px ; text-transform: none ; word-spacing: 0px ; background-color: rgb(248 , 249 , 250) ; display: inline ; float: none&quot;&gt;同步动态特征中心&lt;/span&gt;" style="text;whiteSpace=wrap;html=1;" vertex="1" parent="IkzOAPIZLinOKCkv0hCc-1">
          <mxGeometry x="730" y="830" width="150" height="30" as="geometry" />
        </mxCell>
        <mxCell id="7nnTBE3TrmWXE37nWBMk-24" value="&lt;span style=&quot;color: rgb(0 , 0 , 0) ; font-family: &amp;#34;helvetica&amp;#34; ; font-size: 18px ; font-style: normal ; font-weight: 400 ; letter-spacing: normal ; text-align: center ; text-indent: 0px ; text-transform: none ; word-spacing: 0px ; background-color: rgb(248 , 249 , 250) ; display: inline ; float: none&quot;&gt;写总库关系&lt;/span&gt;" style="text;whiteSpace=wrap;html=1;" vertex="1" parent="IkzOAPIZLinOKCkv0hCc-1">
          <mxGeometry x="940" y="830" width="120" height="30" as="geometry" />
        </mxCell>
        <mxCell id="7nnTBE3TrmWXE37nWBMk-25" value="&lt;span style=&quot;color: rgb(0 , 0 , 0) ; font-family: &amp;#34;helvetica&amp;#34; ; font-size: 18px ; font-style: normal ; font-weight: 400 ; letter-spacing: normal ; text-align: center ; text-indent: 0px ; text-transform: none ; word-spacing: 0px ; background-color: rgb(248 , 249 , 250) ; display: inline ; float: none&quot;&gt;同步总库&lt;/span&gt;" style="text;whiteSpace=wrap;html=1;" vertex="1" parent="IkzOAPIZLinOKCkv0hCc-1">
          <mxGeometry x="580" y="830" width="120" height="30" as="geometry" />
        </mxCell>
      </root>
    </mxGraphModel>
  </diagram>
  <diagram id="pQr7uiFeXy02vsWGFGqS" name="Page-3">
    <mxGraphModel dx="923" dy="508" grid="1" gridSize="10" guides="1" tooltips="1" connect="1" arrows="1" fold="1" page="1" pageScale="1" pageWidth="827" pageHeight="1169" math="0" shadow="0">
      <root>
        <mxCell id="DpsonDQnOKhNFhASFrIA-0" />
        <mxCell id="DpsonDQnOKhNFhASFrIA-1" parent="DpsonDQnOKhNFhASFrIA-0" />
        <mxCell id="DpsonDQnOKhNFhASFrIA-2" value="sync&lt;br&gt;&lt;br&gt;&lt;span style=&quot;text-align: left&quot;&gt;GetHandler // 获取handler进行进一步处理&lt;/span&gt;" style="rounded=0;whiteSpace=wrap;html=1;" vertex="1" parent="DpsonDQnOKhNFhASFrIA-1">
          <mxGeometry x="174" y="290" width="136" height="60" as="geometry" />
        </mxCell>
        <mxCell id="DpsonDQnOKhNFhASFrIA-4" value="remote biz&lt;br&gt;&lt;br&gt;Register&amp;nbsp;&lt;span style=&quot;text-align: left&quot;&gt;//注册handler&lt;/span&gt;&lt;br&gt;Format&amp;nbsp;&lt;span style=&quot;text-align: left&quot;&gt;//实现handler&lt;/span&gt;" style="rounded=0;whiteSpace=wrap;html=1;" vertex="1" parent="DpsonDQnOKhNFhASFrIA-1">
          <mxGeometry x="430" y="290" width="140" height="60" as="geometry" />
        </mxCell>
        <mxCell id="DpsonDQnOKhNFhASFrIA-5" value="plugin" style="swimlane;fontStyle=0;childLayout=stackLayout;horizontal=1;startSize=26;horizontalStack=0;resizeParent=1;resizeParentMax=0;resizeLast=0;collapsible=1;marginBottom=0;" vertex="1" parent="DpsonDQnOKhNFhASFrIA-1">
          <mxGeometry x="310" y="110" width="140" height="90" as="geometry">
            <mxRectangle x="310" y="110" width="60" height="26" as="alternateBounds" />
          </mxGeometry>
        </mxCell>
        <mxCell id="DpsonDQnOKhNFhASFrIA-7" value="&#xa;Register  //注册handler&#xa;&#xa;GetHandler //获取handler" style="text;strokeColor=none;fillColor=none;align=left;verticalAlign=top;spacingLeft=4;spacingRight=4;overflow=hidden;rotatable=0;points=[[0,0.5],[1,0.5]];portConstraint=eastwest;" vertex="1" parent="DpsonDQnOKhNFhASFrIA-5">
          <mxGeometry y="26" width="140" height="64" as="geometry" />
        </mxCell>
        <mxCell id="DpsonDQnOKhNFhASFrIA-9" value="" style="endArrow=classic;html=1;exitX=0.488;exitY=0.994;exitDx=0;exitDy=0;exitPerimeter=0;entryX=0.5;entryY=0;entryDx=0;entryDy=0;" edge="1" parent="DpsonDQnOKhNFhASFrIA-1" source="DpsonDQnOKhNFhASFrIA-7" target="DpsonDQnOKhNFhASFrIA-4">
          <mxGeometry width="50" height="50" relative="1" as="geometry">
            <mxPoint x="450" y="250" as="sourcePoint" />
            <mxPoint x="500" y="200" as="targetPoint" />
          </mxGeometry>
        </mxCell>
        <mxCell id="DpsonDQnOKhNFhASFrIA-11" value="" style="endArrow=classic;html=1;exitX=0.405;exitY=1.026;exitDx=0;exitDy=0;exitPerimeter=0;entryX=0.75;entryY=0;entryDx=0;entryDy=0;" edge="1" parent="DpsonDQnOKhNFhASFrIA-1" source="DpsonDQnOKhNFhASFrIA-7" target="DpsonDQnOKhNFhASFrIA-2">
          <mxGeometry width="50" height="50" relative="1" as="geometry">
            <mxPoint x="460" y="260" as="sourcePoint" />
            <mxPoint x="510" y="210" as="targetPoint" />
          </mxGeometry>
        </mxCell>
      </root>
    </mxGraphModel>
  </diagram>
</mxfile>
